<svg xmlns="http://www.w3.org/2000/svg" xmlns:svg="http://www.w3.org/2000/svg" xmlns:xlink="http://www.w3.org/1999/xlink" id="svg3768" width="200" height="200" version="1.1" viewBox="0 0 200 200" xml:space="preserve"><metadata id="metadata3774"/><defs id="defs3772"><linearGradient id="gradient" x1=".5" x2=".5" y2="1"><stop id="stop3940" offset="0" stop-color="#F88A36"/><stop id="stop3942" offset="1" stop-color="#FD2020"/></linearGradient><linearGradient id="linearGradient4831" x1="298.257" x2="425.056" y1="70.757" y2="203.228" gradientUnits="userSpaceOnUse" xlink:href="#gradient"/><linearGradient id="linearGradient4835" x1="298.257" x2="425.056" y1="70.757" y2="203.228" gradientUnits="userSpaceOnUse" xlink:href="#gradient"/><linearGradient id="linearGradient4837" x1="298.257" x2="425.056" y1="70.757" y2="203.228" gradientUnits="userSpaceOnUse" xlink:href="#gradient"/><linearGradient id="linearGradient4839" x1="298.257" x2="425.056" y1="70.757" y2="203.228" gradientUnits="userSpaceOnUse" xlink:href="#gradient"/><linearGradient id="linearGradient4841" x1="298.257" x2="425.056" y1="70.757" y2="203.228" gradientUnits="userSpaceOnUse" xlink:href="#gradient"/><linearGradient id="linearGradient4843" x1="298.257" x2="425.056" y1="70.757" y2="203.228" gradientUnits="userSpaceOnUse" xlink:href="#gradient"/><linearGradient id="linearGradient4845" x1="298.257" x2="425.056" y1="70.757" y2="203.228" gradientUnits="userSpaceOnUse" xlink:href="#gradient"/></defs><g id="g4823" transform="translate(-260.70343,-54)" style="fill:url(#linearGradient4831);fill-opacity:1"><path id="path3720" d="m 357.43332,67.633353 c -2.75251,-1.271582 -6.13384,1.995481 -4.92923,4.791419 1.21765,3.45328 4.00149,6.083671 6.93556,8.12972 2.09961,1.097595 4.74734,-0.02412 5.92886,-1.95394 0.9963,-1.120619 1.3818,-3.238036 -0.26431,-3.983183 -1.25544,-0.780169 -3.29959,0.353344 -3.9281,-1.467563 -0.6535,-1.542131 -0.18122,-3.634889 -1.70991,-4.74326 -0.55199,-0.484774 -1.27362,-0.881268 -2.03287,-0.773193 z" style="fill:url(#linearGradient4835);fill-opacity:1;stroke:none;stroke-width:1;stroke-linecap:square;stroke-linejoin:miter;stroke-miterlimit:2;stroke-dasharray:none;stroke-opacity:1"/><path id="path3724" d="m 405.17999,90.000019 c -1.59749,-0.866781 -0.86604,-3.230624 0.45784,-4.0057 2.16931,-1.705741 3.46665,-4.335577 5.85763,-5.792316 1.70041,-1.874049 4.89031,-2.067313 5.88755,-4.627555 1.1705,-3.439687 -2.86634,-7.19598 -6.21462,-5.910209 -1.83613,1.17217 -1.15559,4.244312 -3.50703,4.991316 -2.00568,1.062092 -2.29569,3.367392 -3.39452,5.062207 -1.47439,1.723235 -3.93446,2.774208 -4.43571,5.189558 -0.69316,1.743685 -3.47917,3.035214 -2.27494,5.206413 1.22477,2.048626 4.14738,3.15279 6.28569,1.827817 0.71394,-0.353044 1.6163,-1.021106 1.33811,-1.941531 z" style="fill:url(#linearGradient4837);fill-opacity:1;stroke:none;stroke-width:1;stroke-linecap:square;stroke-linejoin:miter;stroke-miterlimit:2;stroke-dasharray:none;stroke-opacity:1"/><path id="path3728" d="m 330.41599,90.045353 c 2.40604,1.850674 4.42224,4.471208 7.48273,5.25945 1.07232,0.220259 2.24263,0.258453 3.28269,-0.109604 1.5924,-0.763761 2.38896,-3.103576 1.28949,-4.568439 -0.65992,-0.983235 -1.95907,-0.186649 -2.66146,-0.950881 -2.37677,-1.749271 -4.67247,-3.608744 -6.88252,-5.564302 -1.67219,-2.112955 -2.42405,-4.744757 -3.6176,-7.117674 -0.8849,-1.464956 -2.84489,-1.601066 -4.32667,-1.096107 -1.40328,0.470487 -2.81369,1.179265 -3.7779,2.32818 -1.27886,1.745047 -0.47345,4.215593 0.98904,5.582886 0.97793,0.938083 2.33791,1.319814 3.34262,2.232553 1.66238,1.288339 3.06338,2.922018 4.87958,4.003938 z" style="fill:url(#linearGradient4839);fill-opacity:1;stroke:none;stroke-width:1;stroke-linecap:square;stroke-linejoin:miter;stroke-miterlimit:2;stroke-dasharray:none;stroke-opacity:1"/><path style="fill:url(#linearGradient4841);fill-opacity:1;stroke:none;stroke-width:1;stroke-linecap:square;stroke-linejoin:miter;stroke-miterlimit:2;stroke-dasharray:none;stroke-opacity:1" id="path3732" d="m 361.09066,93.817353 c 3.35109,-0.49208 6.68883,-1.203409 10.00848,-1.74968 2.79607,-0.620063 5.52893,0.47723 8.31333,0.469986 3.03719,0.624613 6.31062,0.636567 8.83719,2.71186 2.64685,1.009766 4.6592,3.370856 6.51299,5.369451 1.77927,2.39606 3.60981,4.94284 4.23325,7.89679 0.11311,3.72595 -1.81079,7.11572 -3.45855,10.34026 -2.21886,1.74305 -3.10355,4.66727 -5.43457,6.34788 -2.39974,1.96537 -4.69129,4.08816 -7.27995,5.79708 -3.06552,1.81022 -5.37664,4.57109 -8.28243,6.60358 -2.15709,1.97005 -4.5265,3.71443 -6.78124,5.55637 -2.39069,1.25793 -4.8335,2.98981 -7.56664,3.14857 -3.74137,-0.3813 -2.23248,-5.00668 -0.81696,-7.03234 1.70929,-2.59657 2.84747,-5.50243 3.99113,-8.37714 -3.00281,1.61772 -5.50125,3.98156 -8.08658,6.15305 -2.90398,1.50553 -4.59448,4.25943 -7.25288,6.02679 -1.88467,1.97303 -3.11481,5.68035 -6.65953,4.97889 -2.51446,-1.17356 -2.83394,-6.41024 0.003,-7.41396 2.96164,-0.62632 4.26983,-3.9343 6.85395,-5.28387 1.76945,-2.39541 4.62243,-3.20707 6.58734,-5.25804 2.76213,-1.31664 4.69972,-3.65646 7.19008,-5.35607 2.46032,-1.43051 4.65556,-3.08645 6.5938,-5.15138 2.43537,-0.49399 6.02557,1.70626 5.82808,4.48815 -1.14304,2.49727 -3.36437,4.45992 -4.49724,7.01272 -0.48586,1.7817 -2.58063,3.91998 -1.95863,5.51209 2.32179,-1.79622 4.70265,-3.53831 6.74289,-5.68636 2.52981,-1.60227 4.7378,-3.60442 7.05962,-5.52497 1.98138,-1.67073 3.44893,-3.92184 5.28031,-5.79538 1.11821,-2.72763 3.84202,-4.80858 3.61929,-8.03068 -0.10252,-2.67608 -0.77375,-5.35599 -2.55411,-7.36638 -0.866,-2.68038 -3.36335,-3.7559 -5.53446,-5.160813 -2.72871,-1.433969 -6.01095,-0.957386 -8.9431,-1.861383 -4.0939,0.129957 -8.19823,0.806116 -12.20932,1.655625 -5.00833,1.156411 -9.30639,4.138461 -14.11443,5.838501 -4.0063,2.37445 -7.57112,5.49182 -10.80787,8.82687 -1.68272,2.45358 -3.80298,4.59071 -5.14703,7.23419 -1.19784,2.55619 -2.70192,4.95726 -3.03072,7.75998 -1.35356,2.64322 -1.5491,5.50998 -1.49303,8.4307 0.0967,3.04752 1.01584,6.14475 3.28021,8.30747 1.42827,2.42463 3.16883,4.64473 5.74344,5.96604 2.48199,2.19404 5.46229,3.71909 8.11488,5.68507 2.52131,1.52574 4.26396,3.90309 6.89862,5.31647 2.167,1.73099 3.30812,4.36121 4.87298,6.59272 1.38013,2.31418 1.9025,6.86098 5.61613,5.34839 3.416,1.01467 7.30563,-1.97157 10.19135,0.14475 1.84466,2.4289 -1.22224,5.44294 -3.47752,6.312 -2.464,0.8919 -5.15913,-1.76489 -7.39495,0.4679 0.1158,4.0357 4.60674,2.92011 7.32933,2.75216 2.73855,-0.44329 7.14928,1.64862 5.41758,4.9703 -1.76797,3.01045 -5.8852,0.77742 -8.72083,1.50144 -3.22306,-1.46698 -3.43866,5.39835 -0.90798,4.42824 3.43841,-0.15618 6.88843,-0.006 10.28727,-0.63845 3.60481,-0.52313 4.75978,5.21709 1.60967,6.56023 -2.77144,-1.4145 -6.26666,-0.44421 -9.58197,-0.0458 -2.38438,-0.14246 -4.9726,0.46913 -5.17554,3.08642 -1.65308,1.85527 -6.39587,4.00608 -6.64965,0.0125 0.62428,-1.62653 1.75545,-4.43696 -1.17091,-3.99747 -3.28047,-1.14565 -2.72461,-5.6953 0.89853,-5.49077 3.72466,-1.72484 -0.74917,-3.80632 -2.02717,-5.38892 -2.06663,-3.16145 3.86763,-3.4919 2.46237,-6.79302 -0.61935,-2.28371 -5.38812,-0.1296 -5.2254,-3.79222 0.81794,-1.52457 2.85294,-2.97478 0.85483,-4.76065 -1.54404,-2.44622 -2.91786,-5.07685 -5.49488,-6.64699 -2.42518,-1.84993 -4.72209,-4.1306 -7.26313,-5.66905 -2.51332,-0.8934 -4.35986,-3.04008 -6.75953,-4.20116 -2.72072,-2.55209 -5.25137,-5.46361 -6.9087,-8.82459 -1.202,-2.57285 -2.68525,-5.13713 -2.84007,-8.06781 -0.10996,-3.05323 -0.0651,-6.30229 0.89556,-9.18254 1.22419,-2.9097 1.66355,-6.02088 3.35288,-8.71742 1.22589,-2.94268 3.10345,-5.53716 4.48774,-8.40224 1.73193,-2.34465 3.92354,-4.32787 5.78416,-6.58537 3.08473,-2.7677 6.30497,-5.43407 10.09896,-7.177217 3.86119,-2.239075 8.0637,-3.907507 12.36879,-5.069058 1.19574,-0.134524 2.24454,-0.515928 3.28716,-1.112312 z"/><path id="path3736" d="m 416.39866,103.42402 c 2.5381,-0.80019 5.47453,-2.08928 8.02369,-0.63982 2.44635,1.38711 4.14358,5.09226 2.08733,7.47078 -1.33299,1.59178 -3.88349,2.04187 -5.56401,0.73675 -2.52101,-0.99247 -5.42821,-0.30761 -7.72863,0.93407 -2.08944,1.06367 -2.26685,3.97895 -4.46304,4.78824 -2.43195,1.15704 -4.94018,-1.77684 -3.3597,-3.98135 1.21443,-1.90474 3.07092,-3.29147 4.42558,-5.10203 1.73272,-1.9108 3.84711,-4.06135 6.57878,-4.20664 z" style="fill:url(#linearGradient4843);fill-opacity:1;stroke:none;stroke-width:1;stroke-linecap:square;stroke-linejoin:miter;stroke-miterlimit:2;stroke-dasharray:none;stroke-opacity:1"/><path id="path3740" d="m 299.71199,105.28402 c 2.3693,0.53695 4.07381,2.67072 6.55346,2.89438 2.70865,0.75461 4.65335,2.92463 7.03306,4.28454 1.62408,1.29657 3.42227,2.34218 4.64517,4.05454 1.12534,1.57292 4.50485,-0.15001 4.03475,2.68878 -0.23146,1.78941 -2.24118,1.64832 -3.52049,1.12966 -1.63159,-0.39966 -3.09346,-1.27695 -4.50308,-2.12677 -2.33017,-0.75137 -4.55603,-1.84504 -6.94277,-2.39696 -2.36881,-1.15062 -5.09837,-1.46578 -7.67709,-0.96935 -1.99565,0.28304 -4.36282,-0.78688 -4.50967,-3.02053 -0.55058,-3.00433 1.64489,-6.51508 4.88666,-6.53829 z" style="fill:url(#linearGradient4845);fill-opacity:1;stroke:none;stroke-width:1;stroke-linecap:square;stroke-linejoin:miter;stroke-miterlimit:2;stroke-dasharray:none;stroke-opacity:1"/></g><text style="font-style:normal;font-variant:normal;font-weight:400;font-stretch:normal;font-size:42.66666794px;line-height:1.25;font-family:'Gill Sans';-inkscape-font-specification:'Gill Sans';letter-spacing:0;word-spacing:0;fill:#000;fill-opacity:1;stroke:none" id="text3921" x="4.667" y="186.667" xml:space="preserve"><tspan id="tspan3919" x="4.667" y="186.667" dx="0" dy="0" style="font-size:42.66666794px;letter-spacing:-.79000002px">NewtonKit</tspan></text></svg>